<svg xmlns="http://www.w3.org/2000/svg" width="100" height="31" fill="none">
    <path fill="#E4003B" d="M0 14H45.993l2 2-2 2H0v-4ZM53.992 14H99.985v4H53.992l-2-2 2-2Z"/>
    <g clip-path="url(#a)">
        <path fill="#E4003B" fill-rule="evenodd" d="M51.686 15.47c0-.182.2 0 .4-.182.178 0 .357-.41.557-.591.38-.386.38-.773.758-1.16a6.502 6.502 0 0 1 .96-1.546c.16-.494.417-.95.757-1.341-.2-.2-.2 0-.4.182h-.357c-.4.182-.58.386-.959.386 0-.568.758-.386.96-.978.177 0 .177.2.177.2.38-.2.58-.386.937-.386.4-.182.58-.591.96-.773 0 .386-.2.386-.38.59 0 0-.378.365-.579.569a4.684 4.684 0 0 1-1.316 2.114 9.184 9.184 0 0 1-1.9 2.91c-.173.006-.374.188-.575.006Zm18.402-8.684v.182c0 .182-.2.182-.2.182 0 .409-.18.409-.18.409-.178.364-.378.364-.378.773l-.2.182h-.179a10.984 10.984 0 0 1-1.7 2.319c-.857.629-1.75 1.206-2.676 1.728a.68.68 0 0 1-.18.409c-.378 0-.378-.591-.58-.978a5.087 5.087 0 0 1-.556-.978 5.654 5.654 0 0 0-.959-1.91c0-.2-.179.183-.179.183a2.061 2.061 0 0 1-.178-.773s0-.386-.2-.386l-.2-.386h-.357c-.2 0-.58.386-.758.59-.758.774-1.717 1.729-2.475 2.5a12.259 12.259 0 0 1-1.517 1.547c-.19.363-.447.687-.758.955a3.5 3.5 0 0 0-.758.773c-.558.409-.959.978-1.517 1.364-.558.59-1.137.773-1.717 1.364-.357.182-.758.568-1.316.955l-.2.182c-.583.509-1.21.965-1.874 1.364a5.488 5.488 0 0 1-.959 1.159h-.2a2.31 2.31 0 0 0-.937.978l-.58.364a.75.75 0 0 1-.178.409c-.58.568-1.138.955-1.517 1.34-.18.2-.18.387-.38.387a.692.692 0 0 0-.2.59c-.177 0-.356.183-.556.183a1.946 1.946 0 0 1-.959 1.159c-.178.386-.558.773-.758 1.16a5.518 5.518 0 0 0-.758 1.364l-.357.364c-.2.409-.2.773-.4.977a5.097 5.097 0 0 0-.556.978.265.265 0 0 1-.293.058.265.265 0 0 1-.086-.058 4.626 4.626 0 0 1-3.213.568c-.4-.386-1.16-.386-1.339-.978 0-.568.38-.773.58-1.137.233-.147.425-.35.558-.591.108-.209.235-.407.38-.591a3.88 3.88 0 0 0 .757-.955c.379-.386.758-.591.758-.955.58-.2.758-.591 1.339-.978a.742.742 0 0 0 .179-.386c.344-.148.617-.426.758-.773a22.76 22.76 0 0 0 2.453-1.932v-.2c.363-.2.687-.461.959-.773a5.099 5.099 0 0 0 1.517-1.341c.34-.369.722-.697 1.138-.978 0 0 .179-.364.379-.182.2-.591.557-.773.958-1.16.18-.386.558-.568.758-.977.357-.182.357-.364.357-.364.182-.096.378-.163.58-.2 0-.2.18-.386.379-.568l.2-.2a.185.185 0 0 1 .179-.2l.179-.182c.18-.147.375-.276.58-.386.178-.387.178-.568.379-.773l.558-.568a.2.2 0 0 0 .2-.2l.379-.568c.178-.2.178-.2.379-.41l.2-.363c0-.2.356-.41.356-.773.4 0 .4-.2.4-.2.086-.317.284-.592.558-.773.28-.475.6-.923.96-1.341.177 0 .356-.41.757-.41.139-.288.328-.55.558-.772a.73.73 0 0 1 .379-.568c.22-.404.543-.742.937-.978.34-.485.729-.935 1.16-1.341 0-.386-.2-.386-.2-.977 0 0 .2-.182.379-.364a.749.749 0 0 0 .179-.41c.4-.181.58-.567.96-.954v-.182a.416.416 0 0 0 .378-.41c.18 0 .18-.181.38-.363h.2a.6.6 0 0 1 .356-.2 2.9 2.9 0 0 1 .58.386c.937-.773 1.517.955 2.276 1.364.379.568.937.955 1.516 1.728.001.21-.06.416-.177.59.178.183.356-.2.558 0 0 .183.2.183.378.365.178.2.178 0 .38 0 .2.2.2.409.378.2l.18.568c.419.013.824.156 1.16.409.09.103.218.168.356.182h.2l.2.182c.558 0 .758.409 1.116.409l.2-.028Zm-4.171 2.319h.177c-.178-.2 0-.591 0-.591a.244.244 0 0 1-.356 0c0 .182-.2.59.178.59Zm-.58-.773a.2.2 0 0 1 .2-.2V6.586a2.8 2.8 0 0 0-.2 1.746Zm-.357-.773c0 .364-.4.773-.2.955 0 0 .379-.591.2-.955Zm-.2-2.91a.184.184 0 0 0-.2-.182c-.001.183.4.183.2.183v-.001Zm-.2 2.705c0 .568-.357 1.159-.18 1.75.138-.573.198-1.161.179-1.75Zm-1.316-4.842a.718.718 0 0 0-.558-.364c-.202.365.356.776.557.365v-.001Zm-.959-.773v.2c.4 0 .2-.2.2-.2h-.2Zm-.179-.568v.2c.177.006.177-.2-.001-.2h.001Zm-6.825 6.956c.484-.407.932-.856 1.338-1.341.12-.3.312-.564.558-.773.2-.2.558-.591.758-.773v-.2a.608.608 0 0 0 .379-.2 21.756 21.756 0 0 0-2.856 2.91s-.357.174-.179.374l.002.003Zm-1.7 2.114c.758-.364 1.517-.773 2.275-1.136a8.207 8.207 0 0 1 1.316-1.546v-.2a.924.924 0 0 0 .2-.568.725.725 0 0 0 .357-.591c.4-.773.959-.955 1.16-1.546-.4 0-.4.182-.58.386-.096.208-.224.4-.38.568 0 0-.2.2-.378.409-.205.3-.462.562-.758.773-.38.568-.937.955-1.339 1.546l-.557.364h-.38c-.178.2-.379.59-.58.773.004-.004-.554.405-.353.769l-.003-.001Zm-8.163 9.093a3.42 3.42 0 0 1 .936-.773c.936-.656 1.83-1.37 2.677-2.137a.236.236 0 0 1 0-.364c.179 0 .179-.2.179-.2.379 0 .179-.2.379-.386.379-.182.558-.591.959-.773.306-.35.561-.74.758-1.16-.4 0-.4.386-.58.568a14.942 14.942 0 0 0-1.9 1.75c-.2 0-.2.386-.558.386-.4.773-1.16 1.159-1.517 1.932-.58.2-.758.568-1.338.773l.005.384Zm-5.689 9.092c-.558.364-.758 1.137-1.137 1.728v.182c.378-.182.378-.364.378-.364.153-.18.28-.378.38-.591.181-.59.382-.772.382-.957l-.003.002Zm2.275-4.07v-.385a3.05 3.05 0 0 0 .379-.386v-.2l.179-.182.2-.182a.72.72 0 0 1 .2-.41.636.636 0 0 0 .179-.363c.178-.2.379-.41.379-.41-.558.2-1.517.41-1.9 1.183a.764.764 0 0 1 .58.182c-.2.386-.4.773-.58 1.159a2.728 2.728 0 0 1-.758.773c-.179.568-.58.773-.758 1.34-.379.41-.58 1.183-.937 1.547 0 0-.2.59-.4.59-.177.592-.356.774-.557 1.365-.2 0-.38.568-.557.364.35-.82.791-1.598 1.316-2.318.379-1.137 1.137-1.728 1.516-2.682.302-.285.558-.615.758-.978.2-.386.38-.773.558-1.16-.558-.181-.937.387-1.517.592-.52.563-1.09 1.08-1.7 1.546l.179.568c-.178.2-.178.568-.357.773 0 .568-.4.568-.4 1.159a.699.699 0 0 0-.357.59.682.682 0 0 0-.58.365l-.18.2v.2c-.209.093-.404.216-.58.364a.68.68 0 0 1-.178.409s-.58.364-.959 0c0-.41.2-.773.558-.773.2 0 .2.364.2.364.4-.138.74-.411.959-.773.179-.182.357-.568.759-.773.178-.773.557-1.341.758-2.32 0 0-.4.2-.4.41l-.18.182c0 .182-.378.387-.378.59-.2 0 0 .183-.2.183 0 .182-.18.386-.18.59-.178.183-.378.365-.58.569-.356.2-.356.773-.757.773v-.386c.2-.182.758-.591.58-.955-.379.955-1.339 1.546-1.9 2.5 0 .182.38.182.2.386.558.2.758.387 1.116.387l.4-.182a6.92 6.92 0 0 1 .558-.591 22.14 22.14 0 0 0 1.718-2.318.6.6 0 0 0 .179-.386c.12-.136.245-.264.379-.386a.61.61 0 0 1 .2-.386c.443-.737.816-1.513 1.114-2.32a.4.4 0 0 1 .2.569c-.226.41-.48.805-.758 1.182v.182a.184.184 0 0 0-.2.182s-.178.409-.356.409v.182l-.2.182c-.2.409-.558.978-.76 1.364l-.2.182-.178.2c0 .2 0 .2-.178.2a.62.62 0 0 0-.2.364v.2c-.297.21-.553.472-.758.773l-.2.2a5.403 5.403 0 0 0 1.718 0v-.2a5.99 5.99 0 0 1 2.275-3.3 10.877 10.877 0 0 1 1.527-2.867l-.003-.001Zm-.2 1.16c-.357 0-.357.386-.357.386s.181-.203.36-.384l-.003-.002ZM60.021 7.149c0-.182-.357 0-.357-.182-.2 0 0-.182-.2-.386a2.068 2.068 0 0 1-.758.977c0 .364-.38.364-.38.955l-.378.386c.379-.2.2-.568.558-.386a.176.176 0 0 1-.18.182s-.177.2-.378.409l-.2.182c-.18.182-.357.59-.558.182 0-.364.379-.364.758-.364 0-.41-.38-.2-.38-.2.14-.294.338-.557.58-.773l.558-.568c0-.2.2-.41.38-.591l.378-.591c.2 0 .38-.364 0-.364.2.364-.2 0-.378.182a2.04 2.04 0 0 0-.18.59c-.58.183-.4.569-.958.774.2-.41.2-.591.558-.591 0-.591.58-.955.758-1.364-.178-.182 0-.568 0-.568-.557.2-.758.978-1.316 1.16 0 0-.2.59-.38.59v.569a4.924 4.924 0 0 0-1.137 1.546c-.2.107-.387.236-.558.386-.2.182-.2.182-.4.386-.59.334-1.22.594-1.874.773-.2.2-.2.386-.4.386h-.179c-.179.386-.58.773-.758 1.159.58 0 1.34-.568 1.7-.2 0 .409-.357.59-.357.773-.4 0-.2.409-.58.59 0 .183 0 .183-.179.387a.2.2 0 0 0-.2.2c-.2.364-.557.568-.757 1.136-.38.2-.558.978-1.138.773a6.05 6.05 0 0 1 1.138-1.137c.2-1.182 1.315-1.546 1.516-2.523-.558 0-.758.386-1.315.568 0 0-.4.2-.2.409 0 0 .2-.41.557 0l-.178.182c-.178 0 0 .182 0 .182h-.178c-.2.409-.58.59-.758.978-.4.386-.758.773-1.16 1.159a.65.65 0 0 0-.178.386c-.178 0-.178.2-.178.386-.27.175-.523.373-.759.59a.653.653 0 0 1-.4.183 3.834 3.834 0 0 1-1.116.955c-.959.773-1.718 1.364-2.676 2.137a5.862 5.862 0 0 0-1.7 1.364c.379 0 .759-.41.937 0-.254.423-.57.806-.937 1.136a.924.924 0 0 1-.379.773c-.2.409-.38.773-.558 1.182l-.4.364a14.384 14.384 0 0 0 1.718-1.91 9.322 9.322 0 0 1 1.717-2.137c.193-.362.45-.685.758-.955h.178c.18-.2.38-.41.58-.41a3.24 3.24 0 0 1 .357-.567.616.616 0 0 1 .4-.2l.558-.568c.558-.386.758-.773 1.138-.977 0 0 .179-.364.379-.182a4.888 4.888 0 0 1-.959 1.159c-.758.568-1.517 1.342-2.276 1.932a4.627 4.627 0 0 1-1.115.955c-.8.893-1.504 1.869-2.1 2.91.178 0 .379-.182.58-.386v-.2c.179-.182.179-.182.357-.182v-.386c.264-.174.517-.363.758-.568l.4-.41.178-.181a.179.179 0 0 1 .11-.169.178.178 0 0 1 .07-.013c.378-.343.701-.742.958-1.182a.67.67 0 0 0 .557-.364c.96-.591 1.34-1.364 2.1-1.75.34-.543.797-1.001 1.339-1.341l.179.182.178-.182c.2-.2.4-.41.58-.41h.178a.54.54 0 0 0 .2-.363h.379l.178-.591c.58 0 .58-.386.958-.591v-.182c.38-.386.758-.955 1.138-1.364 0-.182.18-.364.38-.568.2-.386.379-.773.379-.773.101-.426.3-.823.58-1.16a.649.649 0 0 0 .179-.385l.179-.2c0-.182.2-.568.2-.364.2.364-.2.364-.2.773a.64.64 0 0 0-.179.363v.2a9.05 9.05 0 0 0-.58 1.159c-.178.182-.178.59-.357.773 0 .182-.2.182-.2.182l.557-.364a.813.813 0 0 1 .2-.591c.2-.386.379-.773.379-.773.179-.386.379-.386.379-.386a.715.715 0 0 0 .2-.386s.179-.386.357-.386c0 0 .2-.2.4-.386a.62.62 0 0 1 .357-.182c.2-.2.4-.773.758-.591a.605.605 0 0 1-.558.59l-.558.569a3.418 3.418 0 0 0-.96 1.34c.2 0 .2-.363.559-.363a.7.7 0 0 1 .4-.591l.179-.182c.179 0 .179 0 .179-.2a.617.617 0 0 0 .4-.2v-.182h.178a.6.6 0 0 0 .179-.387.713.713 0 0 0 .2-.386h.378c0-.591.38-.591.38-.955 0 0-.2.364-.2.182.21-.611.767-.794.767-1.384l-.007-.002Zm1.92-3.456s0-.591-.2-.773c.03.39-.038.781-.2 1.137 0 .2 0 .59-.18.59.09-.45.09-.913 0-1.363a.75.75 0 0 1-.179.59c-.2-.181.18-.59 0-.954 0 0 0-.41-.2-.41.034.464-.034.93-.2 1.365a.455.455 0 0 1-.179-.591l-.179.2a.263.263 0 0 0 0 .386v.59a.653.653 0 0 1-.4.183c.11.1.182.237.2.386 0 .773.558.978.96 1.546h.186s.18-1.16.18-1.546c.01-.473.147-.933.396-1.334l-.006-.002Zm1.516 4.046c.207-1.279.326-2.57.357-3.864-.178-.182-.357-.182-.557-.386-.2.386 0 .977-.2 1.34 0 .2 0 .41-.178.41 0-.591.178-1.364.178-2.137-.558.182 0 1.159-.558 1.159-.2-.2.2-.773 0-1.16-.2.592 0 1.365-.379 1.729 0-.568.179-1.137.179-1.91v-.2a19.396 19.396 0 0 0-.558 2.887s.379 0 .2.2c.178.568-.2 1.16 0 1.75.178-.591 0-1.364.357-1.75v-.568c0-.41 0-.773.4-.773 0 .568-.2 1.137-.2 1.728v.59c0 .569-.379 1.342.2 1.729a2.265 2.265 0 0 1 .179-1.16c.178.569-.38 1.342 0 1.933.145-.368.206-.765.178-1.16a.9.9 0 0 0 0-.772c.408-.203.208.57.408.387l-.006-.002Zm.357.59c-.008.272.061.54.2.774 0-.41.2-.591.2-.978.149-.633.209-1.283.179-1.932a14.76 14.76 0 0 1-.38 1.728c-.378 0-.2-.773-.2-.773a5.34 5.34 0 0 0 .4-1.91l.18-.2a1 1 0 0 1-.18-.568c-.2-.2-.2.182-.2.182 0 1.728-.378 3.092-.378 4.25.007-.001.007-.57.185-.57l-.006-.002Zm5.71-1.363c-.4 0-.58-.182-.959-.182a2.001 2.001 0 0 0-.558.773.726.726 0 0 1-.58.364c0 .409-.379.59-.759.59 0 0 .18-.385-.178-.181.098.098.16.226.178.364l-.379.59a3.99 3.99 0 0 1-.556.387l-.76.387c-.4.386-.758.59-1.16.954.042.419.18.823.4 1.182.559 0 .76-.41 1.117-.41 0-.181 0-.363.2-.363h.2c.461-.448.97-.844 1.516-1.182.357-.568.937-1.136 1.517-1.91a.2.2 0 0 0-.2-.2c.2-.386.379-.386.558-.2.008-.37.409-.574.409-.96l-.006-.003Zm-21.057 8.5c0-.182-.179 0-.179-.182l-.758-.591a4.914 4.914 0 0 0-.758-1.16 7.301 7.301 0 0 0-.959-1.546 4.773 4.773 0 0 0-.757-1.341c.2-.2.2 0 .2 0 .17.1.36.161.557.182.38.182.558.386.96.386 0-.568-.759-.386-.96-.978a.255.255 0 0 1-.293.063.253.253 0 0 1-.085-.063 2.03 2.03 0 0 0-.758-.182c-.38-.182-.58-.591-.937-.773 0 .386.179.386.357.59l.58.569a7.52 7.52 0 0 0 1.339 2.114 8.746 8.746 0 0 0 1.873 2.91s.406.188.583.006l-.005-.004Zm.58-.182-.2.182c-.2-.182-.379-.591-.558-.591-.2-.568-.58-.773-.758-1.136a.2.2 0 0 0-.2-.2.713.713 0 0 1-.2-.386c-.357-.182-.178-.591-.557-.591 0-.182-.38-.364-.2-.773.4-.364.96.2 1.517.2-.179-.386-.558-.773-.759-1.16h-.178a.649.649 0 0 1-.179-.385 6.087 6.087 0 0 1-1.918-.773c-.18-.2-.357-.2-.558-.386a.723.723 0 0 0-.558-.386 4.66 4.66 0 0 0-1.16-1.546v-.386c-.179-.182-.357-.386-.357-.386-.58-.568-.759-1.341-1.339-1.546 0 0 .38.386 0 .568.18.409.758.773.758 1.364.38 0 .379.182.58.59-.58-.2-.4-.59-.759-.772a.617.617 0 0 0-.4-.2c-.179-.568-.357-.2-.357-.568-.4 0-.2.364 0 .364l.357.59c.205.186.398.384.58.592l.38.568.557.568a.368.368 0 0 0-.357.409c.357 0 .758 0 .758.364-.2.409-.4 0-.58-.182l-.178-.182a.617.617 0 0 0-.4-.2.74.74 0 0 1-.178-.386c.38-.182.38.182.58.386l-.4-.386c0-.591-.357-.591-.357-.955a1.829 1.829 0 0 1-.759-.977c-.2.2 0 .386-.2.386 0 .182-.379 0-.379.182.18.59.758.773.758 1.364V8.34c0 .364.18.364.18.773.11.1.25.164.4.182v.182l.356.59h.2v.183l.2.2c.178.2.178.2.357.2v.182c.316.098.586.308.758.59 0 0 .2.365.4.365a3.654 3.654 0 0 0-.959-1.341l-.558-.568a.624.624 0 0 1-.58-.591c.38-.182.58.386.758.59a.72.72 0 0 1 .38.183.623.623 0 0 0 .379.182.682.682 0 0 1 .178.409c.2.363.4.363.4.363l.357.409c.109.308.176.629.2.955.2 0 .379.182.379.59.179.183.379.365.58.569a.715.715 0 0 1-.2-.386 2.958 2.958 0 0 0-.38-.773 5.508 5.508 0 0 0-.58-1.16v-.2a.639.639 0 0 0-.177-.362c0-.41-.38-.41-.18-.773 0-.2.18.182.18.364.178 0 .178.2.178.2a.2.2 0 0 0 .2.2c.2.363.379.773.558 1.137.113.333.247.66.4.977.179.2.356.386.356.568.4.409.758.978 1.16 1.364v.182c.357.2.357.59.937.59l.18.592h.2l-.2.182a3.667 3.667 0 0 1-1.117-.773 15.85 15.85 0 0 0-1.516-1.364 1.626 1.626 0 0 0-.58-.568 3.635 3.635 0 0 1-.937-1.16c-.58-.59-.959-.954-1.517-1.545-.759-.773-1.718-1.728-2.476-2.5-.2-.2-.558-.591-.558-.591h-.58c-.178 0 0 .386-.178.386l-.2.2v.773c-.2.182-.2-.2-.38 0a13.66 13.66 0 0 0-.936 1.909c-.2.409-.4.773-.4.773-.357.59-.179 1.182-.758 1.182a.312.312 0 0 1 0-.41 15.379 15.379 0 0 1-2.633-1.727 7.793 7.793 0 0 1-1.918-2.32h-.178l-.18-.181c0-.41-.2-.41-.4-.591a.646.646 0 0 0-.177-.386.6.6 0 0 0-.178-.386v-.182h.178c.38 0 .58-.41 1.138-.41l.2-.181c-.2.182 0 .182 0 .182l.179-.182a.622.622 0 0 0 .379-.182c.325-.256.724-.4 1.137-.41l.18-.567c.2.2.4 0 .4-.2.177 0 .177.2.356 0 .2-.182.4-.182.58-.364a.267.267 0 0 0 .38 0 .638.638 0 0 1-.2-.41 9.072 9.072 0 0 1 1.717-1.91C37.27 1.737 37.85.009 38.788.782c.2-.182.4-.386.58-.386.097.11.232.181.378.2h.2c.18.182.18.364.357.364a.437.437 0 0 0 .4.409v.182c.357.387.558.773.937.955l.178.2c.2.386.4.386.4.386.178.773-.2.773-.2 1.159.489.395.93.845 1.316 1.34.237.222.434.484.58.774.379.2.58.409.58.773.357.2.558.409.558.773a.685.685 0 0 1 .557.409c.422.279.755.674.96 1.137.33.167.597.438.757.773a.64.64 0 0 1 .2.409c.18.363.558.568.758.773 0 0 0 .364.18.364a.68.68 0 0 0 .178.409l.4.568c.179 0 .179.2.179.2l.58.568c.1.105.164.24.178.386l-.178.182h-.4c-.179-.182-.179-.568-.558-.568a.686.686 0 0 0 .379.568v.59a.6.6 0 0 1-.179-.385c-.4-.387-.758-.568-.959-.978v-.182s-.379 0-.2-.182c.2-.41.2.182.58 0 .179-.2-.379-.2-.379-.2a1.911 1.911 0 0 0-1.316-.773c.357.978 1.316 1.34 1.7 2.523.243.222.442.49.585.787l-.007-.004ZM38.027 1.372a.2.2 0 0 1 .2-.2c-.192 0-.371.205-.192.205l-.007-.005Zm-.356.568c.178 0 .178 0 .357-.2a.62.62 0 0 0-.357-.182v.382Zm-.76.568c.18.409.76 0 .559-.364-.372.005-.372.187-.551.369l-.007-.005ZM35.753 9.1a2.79 2.79 0 0 0-.179-1.75c.008.39.187 1.163.187 1.754l-.008-.004Zm-.357-4.456a.176.176 0 0 0 .18-.182.176.176 0 0 0-.172.187l-.008-.005Zm0 3.864c.179-.182 0-.591-.2-.955-.194.37.007.96.208.96l-.008-.005Zm-.758-1.16v.774c.18 0 .18.2.18.2a2.954 2.954 0 0 0-.18-1.75v.777Zm-.58 1.75h.38v-.59s-.2.182-.2 0a1.06 1.06 0 0 1-.173.596l-.007-.005Zm2.454 1.91c-.357-.363-.758-.568-1.116-.954 0 0-.58-.182-.58-.387-.379 0-.58-.2-.937-.386l-.4-.591c0-.182.4-.182.4-.182-.4-.386-.4 0-.4 0-.357 0-.758-.182-.758-.591-.356 0-.356-.182-.356-.182a6.427 6.427 0 0 0-.58-.773c-.58-.182-.758 0-1.138 0 0 .386.379.59.379.955a.375.375 0 0 1 .58 0 .718.718 0 0 0-.2.409c.514.686 1.089 1.326 1.717 1.91a8.76 8.76 0 0 1 1.317 1.182h.38c.096.098.159.226.177.364.2 0 .4.409.959.409.206-.404.385-.768.563-1.177l-.007-.006Zm0-2.114c.2-1.16-.357-2.523-.357-4.07 0 0 0-.567-.4-.567a.572.572 0 0 1 0 .773.2.2 0 0 1 .2.2c0 .773.2 1.34.2 1.91.179 0 .357.773 0 .773-.2-.364-.2-1.137-.4-1.728a6.27 6.27 0 0 0 .2 1.932c.2.386.2.568.379.978.179-.2-.18-.591 0-.773.386.009.185.373.185.578l-.007-.006Zm.2.386s0-.386-.2-.386v.386h.2Zm1.718-3.682c-.2-.955-.2-1.91-.4-2.887v.2c-.18.773.2 1.34 0 1.91-.357-.364-.18-1.137-.357-1.728-.2.386.178.955 0 1.159-.4 0 0-.977-.58-1.16.14.704.2 1.42.179 2.138a.751.751 0 0 1-.18-.41c-.178-.363 0-.954-.178-1.34a2.878 2.878 0 0 0-.58.386c.027 1.295.153 2.587.379 3.864.2.182 0-.591 0-.591.379.2.2.59.379.977 0 .386.179.773.179 1.159.4-.591-.18-1.364 0-1.932.4.2.2.773.2 1.159.558-.386.2-1.16.2-1.728a.752.752 0 0 1 .178-.41 9.319 9.319 0 0 1-.38-1.91c.38 0 .38.365.38.569v.773c.325.521.459 1.14.379 1.75.2-.591-.2-1.182 0-1.75a.2.2 0 0 1 .21-.192l-.008-.006Zm1.7-.773a.639.639 0 0 1-.18-.364V3.87c0-.182-.2-.182-.2-.182-.2-.2 0-.591-.2-.591 0 0 .2.59-.178.773 0-.386-.178-.955-.178-1.364l-.2.409c-.2.364.2.773 0 .955a.693.693 0 0 1-.2-.591c-.178.409.2.977 0 1.364a2.039 2.039 0 0 1-.178-.591c-.18-.364 0-.773-.18-1.137-.2.182 0 .568 0 .568 0 .568.18.977.18 1.546.028.39.087.778.178 1.16l.2.386c.378-.568.958-.773.958-1.546a.185.185 0 0 1 .18-.198l-.003-.006Zm2.099.2v.2c.357.182.558.568.758.773.232.22.421.483.558.773.494.39.936.84 1.316 1.34.4-.2-.18-.385-.18-.385-.757-1.16-1.899-2.137-2.654-3.092.001.015.001.4.202.4v-.01Zm3.97 4.433a3.058 3.058 0 0 1-.379-.568l-.557-.2a.966.966 0 0 1-.58-.364c-.38-.591-.937-.977-1.34-1.546-.356-.2-.556-.591-.757-.773l-.357-.41a.54.54 0 0 1-.2-.363c-.379-.41-.379-.591-.758-.591.2.59.758.773.96 1.546 0 0 .356.386.356.59a1.6 1.6 0 0 0 .58.569v.2c.379.568.759.955 1.138 1.546.758.364 1.517.773 2.275 1.136.2-.353-.207-.558-.38-.762v-.01Zm19.897 20.868c-.177.59-.936.59-1.315.978a7.37 7.37 0 0 1-3.034-.2l-.558-.364a4.986 4.986 0 0 0-.58-.978 2.606 2.606 0 0 0-.379-.773 3.037 3.037 0 0 0-.379-.568 4.387 4.387 0 0 0-.758-1.364c-.178-.386-.58-.773-.758-1.16a1.917 1.917 0 0 1-.937-1.16.184.184 0 0 1-.2-.181.568.568 0 0 1-.38-.591c-.378 0-.378-.182-.58-.386a10.518 10.518 0 0 1-1.315-1.341c-.2 0-.2-.2-.38-.41a.965.965 0 0 0-.58-.363 1.747 1.747 0 0 0-.758-.978h-.357a4.89 4.89 0 0 1-.958-1.16 14.816 14.816 0 0 1-1.9-1.363v-.182a.178.178 0 0 0 .166-.113.176.176 0 0 0 .012-.07h.4c0 .183.179.364.357.569.758.387 1.16 1.16 1.918 1.546.18.2.357.568.76.568.177.409.757.773 1.114 1.182v.182l.2.182c.2.2.2.2.38.409.177.182.579.364.757.568v.2s.379.182.379.364a.2.2 0 0 0 .2.2.392.392 0 0 0 .357.386 15.878 15.878 0 0 0-2.075-2.91 4.702 4.702 0 0 1-1.138-.955c-.758-.591-1.517-1.364-2.274-1.932a1.293 1.293 0 0 0-.58-.568c-.178-.41 0-.41 0-.41.409.224.742.564.959.978 0 0 .557.2.557.387.2.182.4.182.58.386l.58.568.357.409h.2c.302.276.558.598.76.955A10.75 10.75 0 0 1 56.813 23c.58.568.937 1.546 1.517 2.114l-.178-.568a3.519 3.519 0 0 1-.76-1.182.94.94 0 0 1-.4-.773 2.592 2.592 0 0 1-.757-1.136c0-.41.4 0 .758 0a5.331 5.331 0 0 0-1.7-1.364 30.792 30.792 0 0 0-2.654-2.137 3.105 3.105 0 0 1-.96-.773l-.356-.364.179-.2a21.477 21.477 0 0 0 2.274 1.932c.364.188.684.451.937.773v-.182c-.558-.41-.758-.773-1.115-.978-.4-.568-.959-.977-1.338-1.546 0 0 .378 0 .378-.2.38.409.558.773.96.977.177.386.556.568.757 1.16.357-.182.357.182.558.182.38.409.557.59.959.978.558.386.937.977 1.517 1.34.179.2.558.592.759.774a.52.52 0 0 1 .357.2 11.746 11.746 0 0 0 2.275 1.932c.154.338.422.612.758.773.2.182.2.182.4.386.357.386.557.773 1.115.978.2.364.58.568.758.955.208.351.463.672.759.955a.639.639 0 0 1 .2.409l.757.773c.21.375.567.579.567 1.148v-.01Zm-7.583-4.82c0 .183.2.183.2.183l-.2-.182Zm3.033 4.638c-.357-.591-.558-1.364-1.116-1.728.112.243.172.505.18.773.2.214.331.483.378.773a.391.391 0 0 1 .38.364c.178.01.178.01.178-.172v-.01Zm4.194 0c-.58-.955-1.34-1.546-1.92-2.5-.177.364.4.773.4.773l.18.182v.386c-.38 0-.38-.568-.758-.773l-.38-.568c-.2-.2-.378-.41-.378-.591l-.18-.182c0-.2-.199-.41-.399-.591a.177.177 0 0 0-.179-.182.416.416 0 0 0-.379-.41c.2.979.558 1.547.758 2.32.38.2.558.59.759.773.379.409.557.59.758.773.379 0 .2-.364.2-.364a.7.7 0 0 1 .759.773.656.656 0 0 1-.96 0 .718.718 0 0 0-.2-.41.547.547 0 0 0-.356-.181c-.2-.182-.2-.182-.2-.386 0 0-.38-.568-.759-.568 0-.41-.2-.591-.379-.591 0-.591-.178-.591-.178-1.16a.762.762 0 0 1-.4-.772.278.278 0 0 1 0-.386 57.666 57.666 0 0 0-1.7-1.728c-.379-.2-.937-.773-1.516-.591.179.386.38.773.58 1.159.178.386.557.568.757.978.357.954 1.116 1.546 1.517 2.682a7.101 7.101 0 0 1 1.316 2.318l-.379-.364a4.662 4.662 0 0 1-.758-1.364l-.379-.591c-.379-.364-.558-1.137-.959-1.546-.179-.568-.558-.773-.758-1.341a3.52 3.52 0 0 1-.758-.773 2.9 2.9 0 0 1-.357-1.16.619.619 0 0 1 .357-.181c-.357-.773-1.116-.978-1.7-1.364l.179.59.2.183c.099.184.166.384.2.59l.179.183.179.182v.2a.616.616 0 0 0 .4.2l.178.568a25.27 25.27 0 0 1 1.338 2.887 5.07 5.07 0 0 1 2.075 3.3c.2 0 .2 0 .2.2a5.303 5.303 0 0 0 1.7 0c.178 0-.18-.2-.18-.2-.2-.386-.58-.568-.757-.773v-.2c0-.182-.2-.182-.2-.182a.61.61 0 0 0-.2-.386s-.179-.2-.357-.386c-.2-.386-.58-.955-.759-1.364l-.2-.182v-.182a.694.694 0 0 0-.379-.2l-.179-.387v-.182a3.844 3.844 0 0 1-.58-.978s-.379-.568 0-.773c.298.81.68 1.587 1.138 2.319l.2.2c.18.363.357.363.357.363l.2.59a17.22 17.22 0 0 0 1.718 2.319c.179.182.357.386.558.59h.379v.183c.379 0 .58-.182 1.138-.387-.2-.192.203-.192.203-.374v-.01Z" clip-rule="evenodd"/>
    </g>
    <path fill="#fff" fill-rule="evenodd" d="M99.83 14.607c-.387.504-2.444 1.017-3.408 1.524a84.67 84.67 0 0 1-8.255 1.92l-1.571.142a9.61 9.61 0 0 0-1.73-.243c-.269-.123-.658-.206-1.152-.245a7.198 7.198 0 0 0-1.12-.112c-.538-.208-1.308-.334-2.274-.372-.547-.13-1.697-.11-2.244-.24-.631.074-1.198.102-1.666.082-.468-.02-.83-.089-1.061-.2a2.094 2.094 0 0 1-.204.044c-.066.011-.128.018-.182.02a.498.498 0 0 1-.13-.01c-.031-.008-.05-.02-.056-.037a3.254 3.254 0 0 1-.827.048c-.204-.023-.308-.085-.295-.175-1.027.256-1.057.138-1.634.142-1.361.058-2.627.065-3.784.02-.542.134-.574.005-1.096-.01-.416-.025-.996.03-1.63.157-.405-.18-1.191-.224-2.213-.122l-.967.24c-1.077.04-2.017.004-2.787-.103-1.876.19-3.671.324-5.37.4l-.029-.118c.065-.016.128-.035.186-.056.058-.02.11-.043.152-.065a.386.386 0 0 0 .095-.064c.02-.02.026-.039.02-.053l1.084-.27c.03.117.544.114 1.06.126 2.117-.261 3.331-.031 5.45-.294.518.009 1.06.127 2.149-.145.549.145 2.18-.01 3.213.014l.03.117.57-.017c.575-.005.575-.005 1.094.01.512-.003 1.63-.156 2.146-.145l.032.13s1.057-.138 1.086-.02c.009.035.074.053.182.052.108 0 .249-.021.393-.057.018.062.134.097.324.099.19.002.442-.03.706-.09-1.741-.286-3.785-.449-6.094-.485-1.2.123-2.293.173-3.239.15-2.15.129-4.331.14-6.478.284-.385-.074-.968-.065-1.663.024-.549-.145-.066-.265-.066-.265 1.145-.132 2.104-.137 2.757-.015 0 0 1.544-.247 1.574-.126.572-.017 1.114-.152 1.635-.142l1.663-.023 1.034.024.542-.135c.862-.025 1.609.01 2.211.106 2.068-.085 3.916-.051 5.495.102 1.664-.024 2.79.37 4.453.346l-.574-.249c-.95.003-1.714-.083-2.248-.253-.35.027-.644.02-.854-.02-.21-.04-.333-.112-.355-.211-.997.039-1.77-.039-2.238-.225-.066-.265 1.084-.27 2.054-.512-1.356-.052-3 .038-4.828.264-2.412.078-4.93.214-7.54.409-1.029.125-1.955.175-2.724.147l-1.027.005.453-.25c2.044-.031 4.208-.126 6.478-.285 1.016-.124 1.925-.17 2.664-.132l-.03-.118c-1.578.112-2.178.01-3.179.119-1.176-.098-2.757.015-3.879-.098 0 0 1.027-.256.995-.386 1.093.01 1.637.125 2.757-.014.545.13 1.601-.008 2.242.24.938-.36.997-.123 1.541-.26 1.094.01 1.605.008 2.757-.013 1.575-.127 2.698 0 4.328-.155.518.008 1.608.006 2.182-.012.191-.043.378-.074.55-.093.172-.02.325-.026.45-.019 1.945.024 4.122-.072 6.48-.285.472.116 1.244.112 2.18-.01.571-.018.571-.018 1.146-.02 1.03.008 1.635.124 3.18-.12.601.1 1.664-.024 2.209.107.621.087 1.365.123 2.211.106.328-.008.544.039.608.13l2.18-.01c.63.1 1.63-.008 1.722.36l-.002-.006Zm-21.335 2.001c.03.118.571-.017.571-.017l-.571.017Zm8.972.957c-1.063-.142-1.733-.508-3.304-.367.341.083.549.212.61.38.577.004.978.09 1.152.246.264-.064.521-.102.722-.105.2-.004.33.026.364.085.487-.115.487-.115.458-.233l-.002-.006Zm11.366-2.835c-1.726-.227-3.879-.097-5.605-.324-.423.356 1.21.231 1.21.231l.514-.003.062.25c-1.027.256-1.119-.112-2.179.011l-1.119-.112c-.574.006-1.093-.009-1.123-.127l-.514.003c-.032-.13-.608-.13-1.18-.113-.002-.016-.017-.028-.044-.037a.398.398 0 0 0-.114-.013 1.935 1.935 0 0 0-.356.052c-.02-.065-.144-.102-.346-.104a3.459 3.459 0 0 0-.748.096c.7.499 1.763.625 2.43.992 1.062-.128 1.607.006 2.182-.012 1.093.009 1.605.007 2.179-.011 1.027-.256.483-.371.483-.371.278-.076.562-.138.832-.18.27-.043.517-.065.726-.066.209-.002.373.019.481.06.108.04.157.1.143.174a4.278 4.278 0 0 1-.566.247 7.108 7.108 0 0 1-1.417.354c-.23.032-.44.048-.616.047-.08-.086-.294-.132-.608-.13a4.439 4.439 0 0 0-.997.123c-.572.017-.572.017-.605-.115 0 0-1.118-.112-2.148.145-.067-.266-.638-.248-1.123-.128-.096-.383-.578-.263-.67-.63-.385.045-.707.048-.923.006-.216-.041-.316-.124-.286-.238-.143 0-.23-.026-.241-.072-.012-.047.052-.11.179-.178-1.608-.006-3.212.002-4.887.028-1.06.126-2.664.132-4.206.642.547.13 1.154.245 1.759.36.547.13 1.604-.009 2.212.122 1.122.377 3.275.248 4.545.714 1.685.05 3.022.258 3.941.614l-1.086.02c-.954-.044-1.723-.17-2.275-.373l-1.122-.127c-1.086.02-1.696-.36-2.85-.354-.576-.248-1.636-.124-2.273-.357-.824.056-1.559.06-2.18.011-.597-.097-.99-.27-1.154-.51.243-.129.573-.255.938-.36-1.092-.26-3.182.12-4.828.265l.581.262.572-.017c.298.053.513.136.637.248l.515-.003.514-.003.033.13c.299.004.697-.046 1.116-.14l.574.247c1.524.263 2.892.586 4.096.968 1.543-.12 2.882-.116 3.938.011 1.057.127 1.811.373 2.219.726.542-.135.541-.135.574-.005 1.54-.321 3.096-.71 4.607-1.149.482-.12-.517-.009-.517-.009-.605-.115-1.664.024-2.18.011l-.032-.13c-.03-.117-.571.018-.571.018-.07-.085-.286-.126-.605-.116 0 0-.517-.008-1.03-.008-.604-.116-1.726-.228-2.277-.372l-.572.017-.029-.118c-.294 0-.665.045-1.06.126l-.547-.13-.03-.118c-.7-.029-1.283-.11-1.73-.242 0 0-1.118-.112-.124-.501.937.324 2.096.57 3.459.735l.574-.006c.543.115 1.026-.006 1.026-.006l.638.248a49.09 49.09 0 0 0 5.03.343c.515-.003 1.03.009 1.608.006l1.027-.256.03.118c1.027-.257 1.542-.51 3.021-1.02-.57.01.52-.262.49-.38l-.002-.007ZM.17 17.155c.387-.503 2.444-1.016 3.409-1.523a84.634 84.634 0 0 1 8.255-1.92l1.57-.142a9.6 9.6 0 0 0 1.73.242c.27.124.659.207 1.153.246.316.06.691.098 1.119.112.538.207 1.309.334 2.274.372.548.13 1.697.11 2.245.24a10.695 10.695 0 0 1 1.666-.082c.468.02.829.088 1.06.2.069-.018.138-.034.204-.045.067-.01.129-.017.182-.019a.494.494 0 0 1 .13.01c.032.008.051.02.056.037a3.26 3.26 0 0 1 .828-.048c.204.023.307.084.295.175 1.027-.256 1.056-.138 1.634-.142a45.891 45.891 0 0 1 3.783-.02c.542-.135.574-.005 1.096.009.416.026.996-.03 1.63-.156.405.18 1.192.223 2.213.122l.968-.241c1.077-.038 2.017-.004 2.786.103a96.756 96.756 0 0 1 5.37-.4l.03.119a1.952 1.952 0 0 0-.187.055c-.058.021-.11.043-.152.066a.387.387 0 0 0-.094.064c-.02.02-.027.038-.02.053l-1.085.27c-.03-.118-.544-.114-1.06-.127-2.116.262-3.33.032-5.45.295-.517-.009-1.06-.127-2.148.144-.549-.145-2.18.011-3.213-.013l-.03-.118-.571.017c-.575.006-.575.006-1.093-.009-.512.002-1.631.156-2.147.144l-.032-.13s-1.056.139-1.086.02c-.008-.034-.074-.053-.181-.052a1.794 1.794 0 0 0-.393.058c-.019-.062-.135-.098-.325-.1-.19-.001-.441.031-.705.09 1.74.287 3.785.45 6.094.486 1.2-.123 2.293-.174 3.238-.15 2.15-.129 4.332-.14 6.478-.285.385.074.968.066 1.664-.023.548.145.066.265.066.265-1.145.132-2.105.136-2.757.015 0 0-1.545.247-1.575.126-.571.017-1.113.152-1.634.141l-1.664.024-1.033-.024-.543.135c-.862.025-1.608-.011-2.21-.106-2.068.085-3.916.05-5.496-.102-1.663.024-2.789-.37-4.453-.346l.575.248c.949-.003 1.713.083 2.248.254a3.4 3.4 0 0 1 .854.02c.21.04.332.112.355.21.997-.038 1.77.04 2.238.225.066.266-1.084.27-2.055.513 1.357.052 3-.038 4.828-.265 2.413-.077 4.93-.214 7.54-.408 1.03-.125 1.955-.175 2.725-.147l1.026-.005-.453.25c-2.043.03-4.208.126-6.477.285-1.017.124-1.925.17-2.665.132l.03.118c1.578-.112 2.179-.01 3.18-.12 1.175.099 2.757-.014 3.878.098 0 0-1.027.257-.995.386-1.093-.009-1.637-.124-2.756.015-.545-.13-1.602.008-2.242-.24-.938.36-.997.123-1.542.259a85.858 85.858 0 0 0-2.757.014c-1.575.127-2.697 0-4.328.155a60.567 60.567 0 0 0-2.182.012c-.19.042-.377.074-.55.093-.171.02-.324.026-.45.018-1.944-.023-4.122.073-6.48.286-.472-.116-1.243-.112-2.18.01-.57.018-.57.018-1.146.02-1.03-.008-1.634-.124-3.18.12-.6-.101-1.663.023-2.208-.107a14.254 14.254 0 0 0-2.212-.107c-.327.008-.544-.038-.608-.13l-2.179.011c-.63-.1-1.63.008-1.722-.36l.001.006Zm21.335-2c-.029-.118-.57.017-.57.017l.57-.017Zm-8.971-.957c1.063.142 1.732.508 3.303.366-.34-.082-.548-.211-.61-.38-.577-.004-.978-.089-1.152-.245-.263.064-.52.101-.721.105-.201.004-.331-.027-.365-.085-.487.114-.487.114-.457.232l.002.007ZM1.166 17.032c1.727.228 3.88.098 5.605.325.424-.357-1.209-.231-1.209-.231l-.514.003-.063-.25c1.027-.257 1.12.112 2.18-.012l1.118.113c.575-.006 1.094.009 1.123.127l.515-.003c.032.13.608.13 1.18.113.001.016.016.028.043.037a.395.395 0 0 0 .115.012c.048 0 .104-.005.165-.014.061-.009.126-.022.19-.038.021.066.144.103.346.105a3.45 3.45 0 0 0 .748-.096c-.7-.5-1.762-.626-2.43-.992-1.061.127-1.607-.006-2.181.012a51.92 51.92 0 0 0-2.18.01c-1.026.257-.482.372-.482.372a7.894 7.894 0 0 1-.832.18c-.27.043-.518.065-.726.066a1.434 1.434 0 0 1-.482-.06c-.107-.04-.156-.1-.142-.174.155-.084.348-.169.566-.248a7.137 7.137 0 0 1 1.417-.353c.23-.033.439-.049.616-.047.08.086.294.132.608.13.265.005.621-.04.997-.123.571-.018.571-.018.604.115 0 0 1.119.112 2.149-.145.066.265.637.248 1.123.127.095.384.577.263.67.631.384-.045.706-.048.922-.007.216.042.316.125.286.239.144 0 .23.026.242.072.011.047-.053.11-.18.178 1.609.006 3.212-.003 4.887-.028 1.06-.127 2.665-.132 4.207-.642-.548-.13-1.155-.245-1.76-.36-.547-.13-1.603.009-2.212-.122-1.121-.377-3.274-.248-4.544-.714-1.686-.05-3.023-.258-3.942-.614l1.086-.02c.954.044 1.723.17 2.275.372l1.123.127c1.086-.02 1.696.36 2.849.355.577.247 1.637.124 2.273.357.824-.056 1.56-.06 2.18-.011.598.096.991.27 1.154.51a5.054 5.054 0 0 1-.938.36c1.093.26 3.183-.12 4.828-.265l-.58-.262-.572.017c-.298-.053-.514-.137-.638-.248l-.514.003-.515.003-.032-.13a5.06 5.06 0 0 0-1.116.14l-.575-.247c-1.523-.263-2.891-.587-4.095-.968-1.544.12-2.882.115-3.939-.011-1.057-.127-1.81-.374-2.218-.727-.542.136-.542.136-.574.006a61.46 61.46 0 0 0-4.607 1.149c-.483.12.517.008.517.008.604.116 1.664-.023 2.18-.01l.032.13c.029.117.57-.018.57-.018.071.085.286.126.605.115 0 0 .518.009 1.03.01.605.114 1.726.227 2.278.37l.571-.016.03.118c.293-.001.664-.045 1.059-.127l.548.13.03.118c.7.03 1.282.111 1.729.243 0 0 1.119.112.125.501-.937-.325-2.096-.571-3.459-.735l-.574.006c-.544-.115-1.026.005-1.026.005l-.638-.248a49.092 49.092 0 0 0-5.03-.342c-.515.003-1.03-.009-1.608-.006l-1.028.256-.03-.118c-1.026.256-1.541.51-3.02 1.02.57-.01-.52.262-.49.38l.001.006Z" clip-rule="evenodd"/>
    <defs>
        <clipPath id="a">
        <path fill="#fff" d="M29.995 0H69.99v31H29.995z"/>
        </clipPath>
    </defs>
</svg>