<svg xmlns="http://www.w3.org/2000/svg" width="28" height="28">
    <g data-name="Grupo 10">
        <g fill="none" stroke="#000" stroke-width="2" data-name="Elipse 5">
            <circle cx="14" cy="14" r="14" stroke="none"/>
            <circle cx="14" cy="14" r="13"/>
        </g>
        <path d="M4.555 24.148a13.57 13.57 0 0 1 4.064-2.4c2.567-1.1 3.389-2.038 3.389-4.032 0-1.2-.785-.807-1.128-3-.143-.909-.838-.014-.969-2.091 0-.826.378-1.032.378-1.032s-.191-1.227-.268-2.169a3.783 3.783 0 0 1 1.5-3.132c1.441-1.044 2.071-2.463 4.78-2.336-1.239.655-.966 1.31-.564 1.721a3.738 3.738 0 0 1 2.781 3.745c-.076.943-.267 2.168-.267 2.168s.379.206.379 1.033c-.134 2.076-.827 1.179-.971 2.091-.344 2.194-1.127 1.8-1.127 3 0 1.995.82 2.926 3.387 4.032a14.872 14.872 0 0 1 3.789 2.142 13.861 13.861 0 0 1-19.153.26Z" data-name="Interseção 1"/>
    </g>
</svg>